<?xml version="1.0" standalone="no"?>
<!DOCTYPE svg PUBLIC "-//W3C//DTD SVG 20010904//EN"
 "http://www.w3.org/TR/2001/REC-SVG-20010904/DTD/svg10.dtd">
<svg version="1.0" xmlns="http://www.w3.org/2000/svg"
 width="700.000000pt" height="700.000000pt" viewBox="0 0 700.000000 700.000000"
 preserveAspectRatio="xMidYMid meet">
<metadata>
Created by potrace 1.14, written by Peter Selinger 2001-2017
</metadata>
<g transform="translate(0.000000,700.000000) scale(0.100000,-0.100000)"
fill="#000000" stroke="none">
<path d="M2730 5055 c0 -47 149 -560 202 -697 28 -75 52 -112 41 -66 -14 60
-70 252 -124 423 -34 105 -70 222 -82 260 -19 65 -37 103 -37 80z"/>
<path d="M3257 4860 c-100 -354 -153 -615 -123 -604 11 4 28 61 41 135 16 99
26 149 36 179 6 19 13 53 16 75 2 22 14 79 25 128 11 48 18 93 16 99 -3 7 -8
1 -11 -12z"/>
<path d="M5466 4808 c-9 -12 -16 -30 -16 -40 0 -10 -5 -18 -10 -18 -7 0 -7 -7
0 -20 15 -29 4 -56 -28 -69 -15 -7 -44 -26 -64 -44 -36 -32 -37 -34 -18 -50
12 -10 17 -23 13 -33 -6 -16 -7 -16 -14 2 -6 18 -7 18 -14 1 -5 -13 -1 -23 14
-33 42 -30 12 -94 -44 -94 -16 0 -14 -4 13 -21 20 -14 43 -20 62 -17 22 3 30
0 34 -16 3 -11 1 -25 -4 -30 -7 -7 -10 -6 -10 1 0 14 -38 24 -46 12 -3 -5 -13
-9 -24 -9 -10 0 -20 -7 -24 -15 -3 -8 -12 -12 -21 -9 -8 3 -15 1 -15 -5 0 -12
18 -14 88 -11 34 1 47 -3 58 -18 7 -11 27 -22 44 -25 30 -7 43 -37 15 -37 -9
0 -12 6 -8 18 5 13 0 11 -21 -7 l-26 -25 2 25 c2 15 -2 23 -9 21 -7 -1 -13 2
-13 8 0 5 -16 -2 -36 -15 -20 -14 -40 -25 -44 -25 -19 0 -78 31 -83 43 -4 10
-15 13 -32 10 -16 -4 -33 1 -45 12 -23 21 -39 13 -20 -10 8 -10 9 -15 1 -15
-14 0 -25 45 -17 66 6 16 8 16 24 0 35 -31 53 -16 31 25 -8 16 -13 18 -25 8
-11 -9 -14 -8 -14 9 0 12 -12 28 -29 38 -24 14 -28 21 -20 36 9 17 10 17 29
-2 24 -24 60 -26 60 -5 0 8 -8 15 -18 15 -10 0 -21 3 -25 6 -9 9 16 44 30 44
7 0 13 4 13 8 0 12 -34 42 -47 42 -16 0 -23 40 -11 60 9 13 3 30 -26 82 -20
36 -36 73 -36 84 0 10 -5 26 -10 34 -9 13 -12 12 -25 -4 -8 -11 -15 -35 -15
-54 0 -25 -9 -42 -37 -70 -21 -20 -44 -35 -50 -33 -16 2 -17 -14 -2 -41 8 -15
8 -19 0 -14 -6 4 -11 1 -11 -7 0 -8 7 -17 15 -21 20 -7 13 -47 -11 -60 -10 -6
-21 -12 -24 -14 -3 -2 2 -9 11 -15 8 -7 18 -20 22 -31 6 -14 4 -17 -9 -12 -8
3 -25 0 -37 -7 -20 -11 -17 -12 32 -17 30 -3 56 -9 57 -15 2 -5 -16 -19 -39
-31 -33 -16 -48 -19 -70 -11 -16 5 -31 7 -34 3 -11 -10 7 -36 32 -46 28 -11
32 -25 10 -34 -8 -3 -15 -12 -15 -21 0 -24 -10 -19 -88 43 -40 32 -96 72 -126
89 l-53 30 -65 -26 c-119 -48 -186 -106 -220 -193 -14 -34 11 -9 29 30 9 20
33 52 53 72 36 36 132 80 175 80 28 0 32 -17 34 -157 2 -80 -2 -109 -13 -122
-8 -9 -23 -44 -34 -78 -24 -74 -36 -97 -74 -145 -16 -21 -45 -75 -65 -120 -20
-46 -48 -101 -63 -123 -15 -22 -33 -59 -41 -82 l-14 -42 -67 61 -68 60 44 62
c54 77 62 91 48 82 -6 -4 -27 -31 -47 -60 -48 -73 -71 -84 -121 -58 -21 11
-55 34 -74 50 l-35 29 40 49 c48 60 113 130 183 198 70 67 89 101 21 39 -89
-83 -113 -108 -167 -177 -64 -80 -93 -101 -119 -88 -10 6 -60 15 -110 21 -100
12 -164 30 -170 46 -2 6 11 19 29 30 45 27 20 30 -79 11 -111 -21 -188 -48
-188 -66 0 -22 72 -26 95 -5 32 29 84 30 132 2 39 -23 45 -31 65 -98 12 -41
30 -105 39 -144 21 -88 36 -117 80 -157 46 -42 71 -83 83 -139 6 -25 26 -79
45 -120 18 -41 46 -122 61 -180 34 -130 36 -135 64 -120 28 15 27 36 -4 69
-14 15 -25 36 -25 47 -1 11 -7 31 -15 45 -8 14 -14 36 -15 49 0 24 -20 91 -30
101 -5 5 -30 49 -57 102 -15 28 -10 53 8 42 5 -3 21 -24 35 -46 24 -37 219
-237 212 -217 -7 22 -77 98 -122 134 -52 42 -86 88 -73 101 11 11 138 -43 229
-98 46 -27 88 -53 93 -56 6 -3 -6 14 -26 39 -35 43 -174 140 -193 135 -14 -3
-49 35 -39 43 4 4 25 20 46 35 20 15 35 32 31 37 -4 6 -11 6 -20 -2 -11 -9
-17 -9 -29 1 -15 12 -16 10 -40 -56 -7 -21 -74 -14 -104 12 -16 13 -31 21 -35
17 -3 -3 -6 3 -6 14 0 11 -9 32 -20 46 -13 16 -16 28 -10 32 15 9 12 25 -4 19
-10 -4 -16 2 -18 18 -2 15 -9 23 -21 22 -19 -2 -23 30 -8 55 7 11 13 7 25 -18
9 -17 18 -31 20 -31 8 0 -1 51 -12 62 -7 7 -12 23 -12 37 0 23 -1 23 -19 7
-18 -16 -19 -15 -28 21 -13 50 -7 63 28 63 21 0 32 -7 44 -30 8 -16 15 -37 16
-47 0 -10 7 4 14 30 15 53 25 71 25 43 0 -12 5 -16 14 -13 9 4 17 -2 21 -14 4
-10 13 -19 21 -19 8 0 14 -10 14 -25 0 -27 9 -32 28 -13 10 10 15 8 27 -9 10
-14 25 -21 44 -21 34 1 51 -8 51 -28 0 -8 10 -14 23 -14 31 0 114 -51 222
-138 49 -40 113 -84 142 -98 29 -13 76 -49 104 -78 52 -54 72 -66 186 -106 34
-12 92 -40 129 -61 37 -22 69 -37 72 -35 2 3 -10 22 -27 43 -17 21 -31 46 -31
57 0 14 -3 16 -13 8 -9 -8 -25 -4 -57 15 -27 15 -67 27 -100 30 -30 3 -66 12
-80 20 -34 21 -100 104 -100 127 0 14 -5 17 -21 13 -12 -3 -28 0 -36 9 -8 8
-23 14 -34 14 -11 0 -24 11 -31 26 -11 24 -9 28 21 53 39 32 33 41 -20 34 -37
-5 -40 -4 -50 26 -14 39 -27 40 -21 1 2 -16 1 -38 -3 -47 -5 -16 -8 -16 -15
-3 -7 13 -7 40 -1 158 0 12 10 30 21 39 13 12 20 30 20 54 0 28 6 43 25 57 14
11 25 29 25 41 0 12 6 24 14 27 8 3 19 19 25 35 7 19 15 27 25 23 8 -3 16 1
18 11 2 11 18 -6 45 -48 35 -53 52 -69 98 -91 33 -15 90 -59 139 -104 45 -43
107 -92 137 -109 30 -17 80 -51 112 -77 63 -52 76 -50 22 4 -19 19 -35 37 -35
41 0 13 -83 89 -97 89 -8 0 -26 9 -40 20 -14 11 -32 20 -39 20 -19 0 -54 59
-54 90 l-1 25 -13 -24 -14 -24 -7 22 c-4 13 -22 29 -42 37 -51 22 -77 49 -70
74 4 16 3 19 -8 10 -32 -27 -58 14 -59 95 -1 45 -9 48 -43 16 -26 -26 -33 -8
-8 19 29 32 80 210 56 195 -7 -4 -11 13 -11 49 0 44 3 54 14 50 8 -3 17 -17
21 -32 6 -24 8 -25 16 -9 14 23 29 13 22 -16 -6 -21 -6 -21 15 3 15 16 20 19
16 8 -5 -14 -1 -18 15 -18 12 0 24 -7 27 -15 4 -8 12 -15 20 -15 8 0 14 -8 14
-17 0 -9 7 -25 17 -35 15 -17 15 -19 -5 -37 -12 -10 -22 -21 -22 -23 0 -3 18
-8 41 -12 44 -7 43 -3 22 -68 -8 -26 8 -22 44 12 37 35 53 38 53 11 0 -26 17
-36 35 -21 11 9 16 7 25 -9 7 -14 21 -21 40 -21 22 0 33 -7 44 -27 l15 -28 1
25 c1 42 19 0 22 -53 2 -26 4 -47 6 -47 1 0 7 10 12 23 6 15 9 17 9 6 1 -9 21
-33 45 -53 31 -25 46 -46 50 -71 7 -34 7 -35 31 -19 23 15 25 15 49 -13 20
-22 25 -24 26 -10 0 16 1 16 26 1 14 -9 32 -30 40 -45 8 -16 21 -29 29 -29 8
0 18 -8 24 -17 19 -34 30 1 34 111 3 59 9 112 14 117 6 6 17 1 28 -11 10 -11
24 -20 30 -20 7 0 18 -7 26 -16 7 -9 22 -14 36 -11 15 3 23 -1 23 -9 0 -8 7
-14 15 -14 8 0 15 9 15 20 0 22 -43 55 -60 45 -5 -3 -10 1 -10 10 0 24 -28 30
-50 10 -26 -24 -25 -11 1 24 24 32 34 32 125 -8 35 -16 50 -19 53 -10 2 7 11
3 22 -12 l19 -24 0 22 c0 13 -10 29 -25 39 -24 15 -24 17 -10 52 9 19 14 37
12 39 -6 6 -71 -19 -89 -35 -16 -14 -18 -13 -18 1 0 11 -11 17 -37 19 l-38 3
32 18 c18 9 41 17 53 17 11 0 20 4 20 9 0 13 -27 21 -78 22 -26 0 -41 3 -34 6
6 2 12 9 12 14 0 6 -4 7 -10 4 -5 -3 -10 -1 -10 4 0 6 21 11 49 11 59 0 104
15 98 33 -4 13 -55 14 -122 2 -32 -5 -38 -4 -28 6 9 9 9 20 -3 47 -14 35 -14
35 5 18 23 -21 49 -12 30 10 -20 24 -2 28 27 5 48 -37 61 0 19 55 -14 18 -33
35 -43 39 -20 6 -45 49 -35 59 4 3 17 -1 30 -9 30 -20 129 -34 119 -17 -4 7
-13 12 -20 12 -7 0 -21 9 -31 20 -10 11 -35 25 -56 30 -29 8 -40 17 -48 42
-18 51 -13 54 23 16 32 -34 37 -36 60 -25 14 7 26 15 26 19 0 4 -24 30 -52 58
-50 47 -52 51 -30 56 12 4 22 10 22 15 0 18 -29 79 -53 111 -26 36 -49 93 -40
102 3 3 -2 8 -11 12 -10 4 -15 13 -11 24 9 28 -12 33 -29 8z m-434 -200 c-7
-7 -12 -8 -12 -2 0 6 3 14 7 17 3 4 9 5 12 2 2 -3 -1 -11 -7 -17z m348 3 c0
-5 -10 -11 -22 -14 -22 -6 -22 -6 -4 8 23 17 26 18 26 6z m165 -1 c3 -5 -1
-10 -10 -10 -9 0 -13 5 -10 10 3 6 8 10 10 10 2 0 7 -4 10 -10z m45 -50 c0 -5
-2 -10 -4 -10 -3 0 -8 5 -11 10 -3 6 -1 10 4 10 6 0 11 -4 11 -10z m-622 -12
c-2 -6 -10 -14 -16 -16 -7 -2 -10 2 -6 12 7 18 28 22 22 4z m522 2 c0 -5 -5
-10 -11 -10 -5 0 -7 5 -4 10 3 6 8 10 11 10 2 0 4 -4 4 -10z m-40 -20 c0 -5
-5 -10 -11 -10 -5 0 -7 5 -4 10 3 6 8 10 11 10 2 0 4 -4 4 -10z m-355 -30 c9
-18 11 -30 5 -30 -9 0 -30 40 -30 56 0 12 11 1 25 -26z m455 11 c0 -11 -31
-24 -39 -16 -3 3 1 10 9 15 19 12 30 12 30 1z m-573 -21 c-1 -19 -26 -27 -40
-13 -6 5 6 14 40 32 1 1 1 -8 0 -19z m436 -16 c-7 -19 -45 -14 -51 6 -4 12 -3
13 10 2 13 -10 17 -10 22 3 3 9 10 14 15 10 6 -3 8 -12 4 -21z m101 -30 c4
-10 1 -14 -6 -12 -15 5 -23 28 -10 28 5 0 13 -7 16 -16z m-569 -4 c3 -5 2 -10
-4 -10 -5 0 -13 5 -16 10 -3 6 -2 10 4 10 5 0 13 -4 16 -10z m481 -27 c-10
-10 -19 5 -10 18 6 11 8 11 12 0 2 -7 1 -15 -2 -18z m-66 -15 c0 -11 -28 -10
-35 1 -3 6 4 9 15 8 11 -1 20 -5 20 -9z m92 -10 c-7 -7 -12 -8 -12 -2 0 14 12
26 19 19 2 -3 -1 -11 -7 -17z m76 -8 c-7 -11 -15 -15 -17 -9 -2 6 3 15 10 20
20 12 21 11 7 -11z m-523 -30 c-3 -5 -15 -10 -26 -10 -11 0 -17 5 -14 10 3 6
15 10 26 10 11 0 17 -4 14 -10z m-74 -24 c-11 -13 -51 -29 -51 -20 0 3 51 33
59 34 2 0 -2 -6 -8 -14z m145 -32 c-4 -9 -9 -15 -11 -12 -3 3 -3 13 1 22 4 9
9 15 11 12 3 -3 3 -13 -1 -22z m378 10 c5 -13 4 -14 -7 -6 -8 7 -18 8 -22 4
-5 -4 -5 -1 -1 6 10 17 23 15 30 -4z m-498 -29 c18 -13 17 -14 -18 -15 -36 0
-47 8 -31 23 10 11 28 8 49 -8z m-53 -44 c-13 -3 -32 -14 -43 -23 -27 -23 -26
-5 1 27 19 20 25 22 43 13 l21 -12 -22 -5z m677 15 c0 -9 -40 -13 -46 -5 -3 5
6 9 20 9 14 0 26 -2 26 -4z m-396 -21 c51 -5 76 -15 38 -15 -24 0 -30 -18 -8
-26 8 -3 12 -13 8 -26 -4 -18 -2 -20 21 -14 31 7 34 -1 12 -30 -15 -19 -16
-19 -31 4 -21 28 -48 28 -68 0 -14 -20 -13 -22 32 -46 26 -13 56 -30 67 -37
11 -6 36 -11 56 -10 25 1 36 -2 36 -12 0 -10 -10 -13 -31 -11 -20 1 -30 -2
-28 -10 3 -18 -25 -14 -32 4 -6 16 -8 16 -24 0 -10 -9 -27 -15 -38 -15 -17 1
-18 2 -1 6 15 4 12 10 -20 38 -37 33 -76 45 -87 26 -4 -5 10 -19 29 -31 19
-12 35 -25 35 -29 0 -12 54 -38 93 -45 27 -5 37 -4 32 3 -8 13 24 28 34 15 3
-5 13 -9 21 -9 8 0 16 -7 18 -16 2 -12 -7 -19 -35 -24 -113 -22 -130 -19 -156
25 -10 17 -43 48 -73 70 -60 45 -67 60 -28 60 29 0 64 16 64 30 0 5 -17 11
-37 13 -36 3 -36 4 8 5 l46 2 -2 36 c-2 28 -9 40 -34 55 -40 24 -39 31 2 25
17 -3 54 -8 81 -11z m456 5 c0 -5 -4 -10 -10 -10 -5 0 -10 5 -10 10 0 6 5 10
10 10 6 0 10 -4 10 -10z m-276 -21 c-3 -5 -10 -7 -15 -3 -5 3 -7 10 -3 15 3 5
10 7 15 3 5 -3 7 -10 3 -15z m-439 -18 c10 -17 -11 -21 -31 -6 -18 14 -18 14
3 15 12 0 24 -4 28 -9z m185 1 c0 -13 -12 -22 -22 -16 -10 6 -1 24 13 24 5 0
9 -4 9 -8z m226 -27 c-27 -21 -53 -20 -36 0 7 8 22 15 34 15 21 -1 21 -1 2
-15z m104 6 c0 -6 -5 -13 -12 -17 -6 -4 -8 -3 -4 4 3 5 0 13 -6 15 -8 3 -6 6
5 6 9 1 17 -3 17 -8z m-48 -32 c31 -23 24 -41 -14 -34 -13 3 -22 -4 -30 -23
-6 -15 -12 -22 -15 -15 -4 10 -10 10 -26 -2 -37 -26 -54 -18 -26 12 13 14 19
23 12 19 -6 -3 -14 -2 -18 4 -3 5 0 10 7 10 7 0 30 5 51 11 32 8 36 13 26 25
-17 21 -2 17 33 -7z m158 1 c0 -5 -4 -10 -10 -10 -5 0 -10 5 -10 10 0 6 5 10
10 10 6 0 10 -4 10 -10z m-680 -19 c0 -12 -20 -25 -27 -18 -7 7 6 27 18 27 5
0 9 -4 9 -9z m-287 -66 c-3 -9 -8 -14 -10 -11 -3 3 -2 9 2 15 9 16 15 13 8 -4z
m857 -21 c0 -2 -9 -4 -20 -4 -11 0 -20 4 -20 9 0 5 9 7 20 4 11 -3 20 -7 20
-9z m67 -21 c-9 -9 -19 -14 -23 -11 -10 10 6 28 24 28 15 0 15 -1 -1 -17z
m103 -17 c0 -2 -9 -6 -20 -9 -11 -3 -20 -1 -20 4 0 5 9 9 20 9 11 0 20 -2 20
-4z m-166 -32 c6 -15 4 -15 -11 -3 -10 7 -20 15 -22 16 -2 2 3 3 11 3 9 0 19
-7 22 -16z m111 -4 c3 -5 1 -10 -4 -10 -6 0 -11 5 -11 10 0 6 2 10 4 10 3 0 8
-4 11 -10z m-28 -45 c0 -8 -4 -15 -9 -15 -4 0 -8 7 -8 15 0 8 4 15 8 15 5 0 9
-7 9 -15z m-200 -31 c-3 -3 -12 -4 -19 -1 -8 3 -5 6 6 6 11 1 17 -2 13 -5z
m88 -24 c3 -6 -4 -30 -16 -55 -22 -44 -40 -54 -67 -37 -17 11 12 69 39 77 10
4 17 11 14 16 -4 5 1 9 9 9 8 0 18 -5 21 -10z m-143 -17 c10 -9 18 -20 18 -25
0 -13 -37 9 -44 27 -7 20 3 19 26 -2z m196 -94 c5 -25 6 -53 3 -62 -6 -16 -10
-14 -35 12 -22 23 -27 36 -22 55 3 14 11 26 16 26 6 0 10 8 10 17 0 32 20 -1
28 -48z m-1728 -50 c0 -5 -4 -9 -10 -9 -5 0 -10 7 -10 16 0 8 5 12 10 9 6 -3
10 -10 10 -16z m20 -105 c0 -8 -4 -14 -10 -14 -5 0 -10 9 -10 21 0 11 5 17 10
14 6 -3 10 -13 10 -21z m590 -75 c0 -6 -4 -7 -10 -4 -5 3 -10 11 -10 16 0 6 5
7 10 4 6 -3 10 -11 10 -16z m-546 -55 c3 -8 2 -12 -4 -9 -6 3 -10 10 -10 16 0
14 7 11 14 -7z m636 -67 c0 -5 -4 -5 -10 -2 -5 3 -10 14 -10 23 0 15 2 15 10
2 5 -8 10 -19 10 -23z"/>
<path d="M1500 4778 c-15 -24 -19 -43 -15 -69 7 -39 0 -47 -94 -112 -42 -29
-52 -47 -27 -47 21 0 30 -20 16 -33 -10 -9 -11 -9 -5 3 8 13 7 13 -8 1 -20
-16 -23 -45 -4 -38 7 3 21 -1 32 -9 10 -8 13 -14 7 -14 -7 0 -12 -9 -12 -19 0
-34 -12 -51 -35 -51 -13 0 -27 -4 -30 -10 -3 -5 3 -10 13 -10 37 0 35 -31 -3
-62 -19 -16 -35 -35 -35 -41 0 -8 3 -8 11 0 8 8 20 8 35 3 27 -11 29 -7 14 21
-13 23 2 26 20 4 7 -8 21 -15 31 -15 18 0 18 -1 -1 -37 -12 -23 -16 -42 -11
-52 10 -18 4 -41 -10 -41 -6 0 -9 8 -7 17 2 15 -4 17 -36 14 -26 -2 -36 1 -32
8 4 6 4 11 -1 12 -4 0 -16 2 -25 4 -10 2 -18 -1 -18 -7 0 -6 -9 -8 -20 -5 -17
4 -18 2 -9 -15 6 -11 26 -29 45 -40 35 -21 35 -21 16 -42 -67 -73 -39 -97 31
-26 49 49 54 51 91 45 48 -7 56 -12 56 -32 0 -13 -3 -13 -26 1 -25 17 -25 17
-36 -12 -11 -27 -15 -30 -45 -25 -26 4 -33 2 -33 -11 0 -9 -7 -16 -15 -16 -16
0 -38 -34 -28 -44 3 -3 -4 -6 -16 -6 -17 0 -21 -4 -17 -16 5 -12 1 -14 -17 -8
-12 3 -28 11 -35 17 -7 5 -16 7 -20 3 -15 -16 54 -43 110 -45 29 -1 36 2 32
13 -4 11 0 13 15 9 48 -13 27 -46 -37 -58 -34 -6 -34 -7 -15 -27 18 -21 18
-21 -4 -9 -13 6 -23 16 -23 21 0 13 -12 13 -46 0 l-27 -11 37 -19 c34 -19 81
-20 108 -4 4 3 8 1 8 -5 0 -5 -5 -13 -10 -16 -6 -4 -9 -14 -8 -23 2 -11 -3
-16 -14 -14 -18 3 -34 -35 -26 -59 5 -14 105 84 113 112 8 23 18 24 35 4 10
-12 9 -23 -4 -56 -9 -23 -15 -43 -13 -45 9 -9 35 8 47 32 26 48 39 29 41 -62
1 -37 5 -79 8 -92 l7 -25 36 32 c19 17 39 31 42 31 4 0 22 16 42 35 19 19 42
35 50 35 9 0 41 18 73 40 31 22 62 40 69 40 7 0 12 9 12 20 0 11 6 23 14 26 8
3 17 17 21 31 5 20 8 23 20 13 15 -13 20 -4 16 28 -1 6 5 12 12 12 8 0 17 7
20 15 6 15 43 13 61 -5 10 -10 56 -14 56 -5 0 3 -10 19 -22 35 -12 16 -19 32
-17 34 3 3 23 -1 44 -9 22 -8 48 -14 57 -15 16 0 16 2 1 28 -16 28 -16 30 5
52 12 13 22 32 22 42 0 21 11 23 28 6 8 -8 14 -5 21 15 6 15 15 27 20 27 5 0
13 9 16 20 4 12 14 19 23 18 11 -2 16 3 14 12 -3 12 -1 13 9 3 19 -19 29 -16
29 11 0 13 7 29 15 36 11 9 15 9 15 1 0 -7 5 -9 10 -6 6 4 8 10 5 15 -3 5 -1
11 5 15 5 3 10 -2 10 -12 0 -15 2 -15 9 -4 11 18 41 24 36 8 -8 -24 -13 -137
-6 -137 7 0 30 -63 37 -99 4 -20 -25 -73 -35 -66 -5 3 -9 -19 -9 -47 -1 -29
-6 -54 -11 -56 -6 -2 -11 -10 -11 -18 0 -18 -9 -18 -31 1 -15 15 -17 14 -23
-9 -3 -13 -24 -39 -46 -56 -40 -31 -41 -32 -61 -14 -19 17 -19 17 -13 0 4 -9
2 -27 -4 -39 -5 -12 -13 -31 -16 -41 -4 -10 -9 -16 -13 -12 -3 3 -13 -3 -21
-15 -11 -16 -17 -17 -28 -8 -14 11 -15 10 -18 -11 -2 -16 -26 -28 -46 -23 -12
3 -21 -5 -30 -26 -7 -17 -16 -32 -21 -32 -5 -1 -13 -2 -19 -3 -8 -1 -70 -90
-70 -101 0 -2 29 17 64 43 35 26 89 63 121 82 31 19 81 63 111 97 39 44 67 66
102 79 56 21 84 43 126 104 53 76 83 56 74 -50 -5 -51 0 -57 31 -40 33 17 53
-10 61 -81 4 -35 8 -56 9 -46 1 19 19 24 18 5 -1 -40 5 -56 23 -61 14 -3 20
-14 20 -32 0 -14 4 -23 10 -20 5 3 2 -15 -7 -40 -16 -42 -33 -60 -33 -34 0 8
-5 8 -15 -1 -13 -11 -15 -7 -16 26 l-1 39 -10 -34 c-5 -19 -13 -30 -16 -24 -4
6 -17 13 -29 17 -37 12 -30 -29 7 -44 33 -14 36 -37 4 -32 -10 2 -16 1 -12 -4
11 -11 -11 -34 -33 -34 -11 0 -19 -5 -19 -11 0 -8 -5 -8 -15 1 -12 10 -15 10
-15 -3 0 -10 -6 -14 -14 -11 -16 6 -36 -24 -36 -54 0 -25 -54 -72 -81 -72 -11
0 -17 -5 -14 -10 7 -11 -41 -33 -54 -26 -4 3 -25 0 -47 -5 -21 -6 -46 -12 -54
-13 -8 -1 -25 -7 -36 -14 -12 -6 -24 -9 -27 -6 -3 3 -13 -10 -22 -29 -9 -19
-25 -43 -36 -53 -40 -36 -15 -31 84 19 56 29 135 65 175 80 62 25 79 37 112
80 30 40 50 56 87 69 29 10 94 53 162 108 112 90 178 130 213 130 10 0 18 7
18 15 0 8 15 18 33 23 17 6 39 13 47 16 11 4 19 -1 26 -16 6 -13 9 -18 8 -13
-1 6 3 21 8 35 7 20 11 22 18 10 7 -12 12 -8 21 18 6 17 17 32 25 32 8 0 17 6
20 14 7 18 38 26 55 15 7 -4 18 -4 24 1 10 9 64 9 66 0 2 -8 2 -43 1 -68 -2
-29 -22 -19 -22 11 0 13 -3 18 -10 11 -12 -12 -15 -69 -6 -115 6 -26 4 -39 -5
-45 -7 -4 -14 -3 -17 4 -8 24 -18 11 -16 -20 0 -18 -5 -43 -12 -55 -17 -28
-18 -46 -1 -38 6 4 3 -1 -7 -9 -11 -9 -30 -16 -42 -16 -13 0 -24 -8 -27 -20
-10 -39 -67 -14 -104 46 -10 15 -14 16 -21 5 -8 -10 -14 -11 -31 -1 -12 6 -29
10 -38 8 -11 -2 4 -16 40 -41 56 -37 71 -57 42 -57 -8 0 -15 -4 -15 -9 0 -5
-13 -12 -30 -16 -16 -4 -30 -10 -30 -14 0 -4 -20 -17 -45 -29 -26 -13 -51 -34
-60 -52 -8 -16 -20 -30 -25 -30 -5 0 -14 -10 -21 -21 -6 -12 -7 -19 -2 -16 4
2 37 23 73 44 74 45 181 96 223 107 28 7 28 6 13 -21 -8 -15 -43 -56 -77 -89
-76 -73 -123 -125 -94 -104 28 21 100 95 172 175 57 64 63 68 63 43 0 -15 -7
-33 -15 -42 -8 -8 -15 -21 -15 -28 0 -7 -9 -21 -20 -31 -11 -9 -20 -25 -20
-36 0 -28 -11 -52 -21 -45 -5 3 -9 -1 -10 -8 -4 -78 -39 -182 -75 -219 -30
-31 -32 -76 -2 -46 9 9 23 14 31 11 9 -3 18 5 25 23 10 25 41 128 46 157 9 41
22 77 42 116 12 25 30 73 39 105 19 68 52 123 105 177 32 34 62 99 75 170 9
42 37 134 51 160 18 35 9 40 -71 39 -74 -1 -127 -8 -174 -23 -31 -10 -36 -8
-53 13 -52 66 -110 130 -180 197 -55 54 -84 91 -103 134 -15 33 -29 57 -32 54
-3 -2 7 -30 21 -62 19 -41 52 -81 120 -148 112 -110 166 -176 166 -204 0 -24
-39 -56 -126 -101 -34 -18 -88 -55 -120 -81 l-57 -49 -16 47 c-9 26 -32 74
-52 107 -19 33 -46 87 -59 119 -13 33 -43 81 -67 108 -24 27 -43 57 -43 66 0
10 -14 58 -31 107 -28 79 -31 102 -30 188 0 66 6 107 16 127 l16 30 -33 -5
c-53 -10 -122 -58 -239 -169 -98 -94 -177 -156 -199 -156 -10 0 -20 -5 -22
-12 -3 -9 -6 -9 -12 0 -4 7 3 16 18 24 33 14 34 37 2 34 -25 -3 -55 9 -46 18
3 2 23 7 45 10 48 5 78 16 87 30 14 20 -3 23 -65 12 -59 -11 -64 -11 -60 5 3
11 12 16 24 14 22 -4 23 -1 9 26 -11 20 3 28 15 9 9 -15 45 -12 45 3 0 17 -39
49 -50 42 -6 -4 -10 3 -10 13 0 11 -7 22 -15 26 -8 3 -15 10 -15 16 0 13 33
13 47 -1 6 -6 26 -9 44 -7 l34 3 -31 17 c-17 9 -44 19 -59 22 -34 6 -34 6 -45
46 l-10 33 29 -27 c18 -17 34 -24 44 -20 18 7 23 24 7 24 -5 0 -10 6 -10 14 0
8 -8 22 -17 31 -9 10 -17 34 -17 54 -1 24 -12 54 -33 85 -18 27 -34 60 -34 73
-1 13 -3 28 -4 33 -1 6 -3 13 -4 18 -1 4 -10 -4 -21 -18 -21 -27 -26 -60 -10
-76 7 -7 -3 -18 -30 -34 -22 -14 -42 -33 -45 -42 -4 -10 -10 -18 -15 -18 -5 0
-7 -7 -4 -15 4 -8 1 -15 -5 -15 -6 0 -11 -7 -11 -15 0 -8 4 -15 9 -15 5 0 13
-15 16 -32 4 -18 13 -37 19 -41 6 -5 -3 -7 -21 -4 -36 4 -41 -3 -17 -23 13
-12 11 -16 -15 -33 -42 -26 -40 -41 5 -34 47 8 66 24 58 51 -5 16 -3 18 6 10
9 -9 8 -24 -7 -67 -15 -47 -22 -56 -46 -60 -23 -3 -27 0 -25 17 2 13 -2 20 -9
18 -7 -1 -22 7 -33 18 -11 11 -27 21 -35 21 -8 1 -19 3 -25 4 -5 1 -15 3 -20
4 -16 2 -50 64 -50 91 0 22 5 18 31 -24 30 -47 45 -51 49 -11 5 42 -1 63 -16
69 -12 4 -15 2 -10 -9 3 -8 0 -15 -5 -15 -7 0 -9 11 -6 26 3 19 1 24 -10 20
-11 -5 -11 -2 2 16 23 34 18 61 -21 119 -19 29 -40 74 -46 101 -6 26 -16 44
-21 41 -6 -4 -7 4 -3 21 9 36 -10 33 -34 -6z m1 -200 c-12 -11 -13 -10 -8 5 4
11 1 17 -8 17 -8 0 -15 8 -15 17 0 15 3 14 22 -5 19 -18 20 -24 9 -34z m115
10 c4 -7 4 -10 -1 -6 -4 4 -14 3 -22 -3 -10 -9 -13 -8 -13 5 0 19 26 22 36 4z
m-186 -18 c13 -11 18 -20 12 -20 -6 0 -14 5 -17 10 -3 6 -15 10 -26 10 -11 0
-17 5 -14 10 9 15 19 12 45 -10z m200 -26 c0 -8 -4 -12 -10 -9 -5 3 -10 10
-10 16 0 5 5 9 10 9 6 0 10 -7 10 -16z m-143 -36 c-3 -8 -6 -5 -6 6 -1 11 2
17 5 13 3 -3 4 -12 1 -19z m103 -22 c0 -9 -30 -14 -35 -6 -4 6 3 10 14 10 12
0 21 -2 21 -4z m-142 -47 c-7 -22 -13 -27 -19 -18 -4 7 -6 16 -5 19 2 3 6 13
9 23 4 10 11 16 16 12 6 -3 6 -17 -1 -36z m410 30 c-2 -6 -8 -10 -13 -10 -5 0
-11 4 -13 10 -2 6 4 11 13 11 9 0 15 -5 13 -11z m77 -19 c-4 -12 -9 -19 -12
-17 -3 3 -2 15 2 27 4 12 9 19 12 17 3 -3 2 -15 -2 -27z m-433 -42 c-7 -7 -12
-8 -12 -2 0 14 12 26 19 19 2 -3 -1 -11 -7 -17z m-83 -46 c-5 -2 -16 -2 -26 0
-15 3 -15 5 2 22 18 18 19 18 26 0 3 -11 3 -20 -2 -22z m161 3 c0 -8 -4 -15
-10 -15 -5 0 -10 7 -10 15 0 8 5 15 10 15 6 0 10 -7 10 -15z m-142 -42 c6 -19
-25 -16 -32 3 -4 11 -1 14 11 12 9 -2 18 -9 21 -15z m228 -33 c17 0 44 -23 44
-39 0 -5 7 -17 16 -25 18 -19 11 -36 -14 -31 -9 2 -22 4 -28 4 -5 1 -19 8 -30
16 -18 14 -17 14 11 5 29 -10 28 -9 -12 27 -23 21 -45 51 -49 68 l-7 29 27
-27 c15 -15 34 -27 42 -27z m-86 10 c0 -5 -4 -10 -10 -10 -5 0 -10 5 -10 10 0
6 5 10 10 10 6 0 10 -4 10 -10z m320 -30 c0 -6 -6 -10 -12 -10 -22 0 -41 17
-34 29 8 13 46 -3 46 -19z m-426 -49 c3 -5 -1 -15 -10 -22 -14 -12 -14 -14 2
-26 18 -13 7 -17 -19 -7 -12 4 -13 11 -4 35 12 30 21 36 31 20z m376 -16 l23
-25 -27 0 c-21 0 -27 -4 -22 -15 4 -12 0 -14 -18 -9 -19 4 -31 -1 -51 -25 -20
-21 -40 -32 -71 -37 -48 -7 -84 10 -64 30 7 7 14 4 24 -10 24 -33 30 -7 6 30
-23 39 -14 48 15 16 31 -34 69 -26 112 25 21 24 41 44 44 45 3 0 16 -11 29
-25z m-340 0 c0 -8 -4 -15 -10 -15 -5 0 -10 7 -10 15 0 8 5 15 10 15 6 0 10
-7 10 -15z m107 9 c-3 -3 -12 -4 -19 -1 -8 3 -5 6 6 6 11 1 17 -2 13 -5z m-67
-54 c0 -11 -7 -20 -15 -20 -18 0 -19 12 -3 28 16 16 18 15 18 -8z m50 0 c0 -5
-4 -10 -10 -10 -5 0 -10 5 -10 10 0 6 5 10 10 10 6 0 10 -4 10 -10z m334 -5
c3 -8 1 -15 -4 -15 -6 0 -10 7 -10 15 0 8 2 15 4 15 2 0 6 -7 10 -15z m-339
-46 c-10 -15 -25 -10 -19 6 4 8 10 12 15 9 5 -3 7 -10 4 -15z m208 1 c-4 -16
-8 -18 -19 -9 -16 13 -10 29 11 29 8 0 11 -7 8 -20z m-256 -16 c-3 -3 -12 -4
-19 -1 -8 3 -5 6 6 6 11 1 17 -2 13 -5z m343 -20 c0 -2 -7 -4 -15 -4 -8 0 -15
4 -15 10 0 5 7 7 15 4 8 -4 15 -8 15 -10z m-90 -19 c0 -11 -11 -15 -47 -14
-27 1 -39 3 -28 6 11 3 24 9 30 14 15 14 45 10 45 -6z m165 5 c-3 -5 -11 -10
-16 -10 -6 0 -7 5 -4 10 3 6 11 10 16 10 6 0 7 -4 4 -10z m-395 -26 c0 -2 -9
-4 -21 -4 -11 0 -18 4 -14 10 5 8 35 3 35 -6z m-105 -14 c-3 -5 -12 -10 -18
-10 -7 0 -6 4 3 10 19 12 23 12 15 0z m193 -3 c-28 -11 -36 -31 -19 -41 5 -3
25 -8 46 -12 31 -5 37 -2 42 15 7 26 19 27 28 4 4 -12 -1 -24 -17 -37 -13 -10
-22 -23 -20 -27 7 -26 -59 18 -100 66 -27 31 -21 41 25 42 40 1 41 1 15 -10z
m-262 -18 c3 -6 1 -16 -5 -22 -8 -8 -11 -8 -11 0 0 8 -10 9 -32 3 l-33 -9 24
19 c26 22 46 25 57 9z m467 -8 c-8 -32 -40 -56 -56 -42 -8 6 -17 9 -20 6 -4
-3 -5 -2 -2 1 6 10 69 53 77 54 3 0 4 -9 1 -19z m-333 -1 c0 -5 -5 -10 -11
-10 -5 0 -7 5 -4 10 3 6 8 10 11 10 2 0 4 -4 4 -10z m950 -14 c0 -3 -4 -8 -10
-11 -5 -3 -10 -1 -10 4 0 6 5 11 10 11 6 0 10 -2 10 -4z m-1005 -26 c3 -5 2
-10 -4 -10 -5 0 -13 5 -16 10 -3 6 -2 10 4 10 5 0 13 -4 16 -10z m120 -10 c3
-5 2 -10 -4 -10 -5 0 -13 5 -16 10 -3 6 -2 10 4 10 5 0 13 -4 16 -10z m254
-22 c15 -1 -42 -58 -58 -58 -5 0 -11 9 -14 20 -3 11 -1 20 4 20 5 0 9 7 9 16
0 12 6 15 23 9 12 -3 28 -7 36 -7z m-224 -28 c-3 -5 -12 -10 -18 -10 -7 0 -6
4 3 10 19 12 23 12 15 0z m-255 -16 c0 -8 -19 -13 -24 -6 -3 5 1 9 9 9 8 0 15
-2 15 -3z m200 2 c0 -3 -4 -8 -10 -11 -5 -3 -10 -1 -10 4 0 6 5 11 10 11 6 0
10 -2 10 -4z m173 -77 c-18 -18 -19 -18 -55 6 -20 14 -44 25 -52 25 -19 0 -22
20 -3 21 35 2 73 11 81 19 6 6 17 -3 29 -22 18 -30 18 -31 0 -49z m-151 6 c30
-26 58 -33 58 -15 0 6 5 10 10 10 15 0 -6 -37 -44 -80 -17 -19 -41 -48 -53
-65 l-23 -30 1 90 c2 87 5 115 16 115 3 0 18 -11 35 -25z m980 10 c0 -5 -5
-11 -11 -13 -6 -2 -11 4 -11 13 0 9 5 15 11 13 6 -2 11 -8 11 -13z m719 -242
c-9 -16 -10 -15 -11 8 0 14 3 29 8 33 12 12 14 -22 3 -41z m-31 3 c0 -3 -4 -8
-10 -11 -5 -3 -10 -1 -10 4 0 6 5 11 10 11 6 0 10 -2 10 -4z m-20 -113 c0 -5
-5 -15 -10 -23 -8 -12 -10 -11 -10 8 0 12 5 22 10 22 6 0 10 -3 10 -7z"/>
<path d="M3515 4754 c-44 -75 -189 -371 -235 -478 -43 -100 -61 -176 -43 -176
16 0 27 19 63 110 18 47 37 91 43 98 5 7 20 43 33 80 13 37 28 76 33 87 5 11
17 40 27 65 10 25 40 92 66 149 52 111 58 142 13 65z"/>
<path d="M2470 4721 c0 -5 7 -12 16 -15 14 -5 15 -4 4 9 -14 17 -20 19 -20 6z"/>
<path d="M2555 4601 c65 -128 246 -371 276 -371 12 0 -43 80 -179 260 -110
145 -120 157 -97 111z"/>
<path d="M3603 4373 c-144 -142 -267 -269 -273 -282 -9 -16 -9 -26 -1 -34 12
-12 82 55 201 192 36 40 76 85 90 100 14 15 47 52 74 82 27 30 72 79 100 109
56 60 81 90 75 90 -3 0 -122 -116 -266 -257z"/>
<path d="M2766 4465 c4 -8 10 -12 15 -9 11 6 2 24 -11 24 -5 0 -7 -7 -4 -15z"/>
<path d="M1687 4406 c-3 -8 -2 -18 3 -21 13 -8 24 15 12 27 -6 6 -11 4 -15 -6z"/>
<path d="M2646 4315 c23 -19 56 -57 74 -85 18 -27 34 -50 37 -50 12 0 -62 120
-85 137 -49 35 -68 34 -26 -2z"/>
<path d="M4542 4285 c0 -16 2 -22 5 -12 2 9 2 23 0 30 -3 6 -5 -1 -5 -18z"/>
<path d="M3845 4172 c-309 -137 -445 -212 -445 -248 0 -26 36 -15 112 35 99
64 136 85 368 203 107 55 197 102 199 104 14 13 -38 -8 -234 -94z"/>
<path d="M5682 4191 c4 -13 18 -16 19 -4 0 4 -5 9 -11 12 -7 2 -11 -2 -8 -8z"/>
<path d="M2341 4174 c0 -11 3 -14 6 -6 3 7 2 16 -1 19 -3 4 -6 -2 -5 -13z"/>
<path d="M2610 4141 c0 -5 5 -13 10 -16 6 -3 10 -2 10 4 0 5 -4 13 -10 16 -5
3 -10 2 -10 -4z"/>
<path d="M5607 4144 c-8 -8 1 -24 13 -24 4 0 10 7 14 15 5 15 -14 21 -27 9z"/>
<path d="M4253 4128 c-4 -7 -8 -20 -10 -28 -1 -10 3 -9 13 4 14 19 18 36 10
36 -3 0 -8 -6 -13 -12z"/>
<path d="M2421 4034 c0 -11 3 -14 6 -6 3 7 2 16 -1 19 -3 4 -6 -2 -5 -13z"/>
<path d="M2717 3990 c10 -17 29 -38 42 -47 18 -11 14 -3 -15 31 -45 54 -52 58
-27 16z"/>
<path d="M2650 3988 c0 -9 7 -22 17 -29 15 -13 15 -12 3 11 -17 34 -20 36 -20
18z"/>
<path d="M4370 3982 c0 -6 -12 -25 -27 -43 -15 -18 -21 -30 -13 -27 18 6 55
66 46 75 -3 4 -6 1 -6 -5z"/>
<path d="M4680 3956 c0 -10 -6 -13 -15 -10 -11 5 -15 -1 -15 -21 0 -27 1 -27
18 -12 10 10 22 14 25 10 4 -3 7 3 7 15 0 11 -4 24 -10 27 -5 3 -10 -1 -10 -9z"/>
<path d="M4726 3954 c-9 -23 9 -41 44 -46 49 -7 54 7 11 35 -48 32 -47 32 -55
11z"/>
<path d="M2270 3940 c0 -21 7 -23 53 -20 21 1 27 -3 27 -19 0 -12 5 -21 10
-21 6 0 10 9 10 21 0 11 5 29 10 40 7 11 7 19 1 19 -5 0 -12 -6 -15 -12 -5
-10 -7 -10 -12 -1 -4 10 -10 10 -24 0 -15 -9 -22 -9 -32 1 -18 18 -28 15 -28
-8z"/>
<path d="M4260 3945 c-8 -9 -8 -15 -2 -15 12 0 26 19 19 26 -2 2 -10 -2 -17
-11z"/>
<path d="M2220 3920 c0 -5 6 -10 14 -10 8 0 18 5 21 10 3 6 -3 10 -14 10 -12
0 -21 -4 -21 -10z"/>
<path d="M2749 3882 c10 -15 28 -43 40 -62 11 -19 21 -30 21 -23 0 18 -52 102
-67 108 -8 2 -6 -7 6 -23z"/>
<path d="M4272 3888 c-16 -21 -44 -80 -39 -84 2 -2 16 18 31 46 26 48 30 64 8
38z"/>
<path d="M1890 3850 c0 -5 5 -10 10 -10 6 0 10 5 10 10 0 6 -4 10 -10 10 -5 0
-10 -4 -10 -10z"/>
<path d="M4480 3792 c0 -11 28 -36 58 -51 21 -11 22 -11 11 7 -14 23 -69 58
-69 44z"/>
<path d="M1960 3781 c0 -5 5 -13 10 -16 6 -3 10 -2 10 4 0 5 -4 13 -10 16 -5
3 -10 2 -10 -4z"/>
<path d="M4010 3759 c-7 -11 -10 -23 -7 -25 2 -2 9 7 15 21 14 30 7 33 -8 4z"/>
<path d="M2476 3745 c-3 -8 -2 -15 3 -15 5 0 14 7 21 15 10 12 10 15 -3 15 -8
0 -17 -7 -21 -15z"/>
<path d="M3020 3745 c0 -8 4 -15 10 -15 5 0 7 7 4 15 -4 8 -8 15 -10 15 -2 0
-4 -7 -4 -15z"/>
<path d="M2820 3743 c0 -15 80 -116 87 -109 3 3 -12 27 -33 53 -55 69 -54 68
-54 56z"/>
<path d="M3165 3641 c-3 -5 -2 -12 3 -15 5 -3 9 1 9 9 0 17 -3 19 -12 6z"/>
<path d="M3571 3584 c0 -11 3 -14 6 -6 3 7 2 16 -1 19 -3 4 -6 -2 -5 -13z"/>
<path d="M3340 3550 c-7 -17 -10 -33 -8 -36 3 -2 11 9 18 26 7 17 10 33 8 36
-3 2 -11 -9 -18 -26z"/>
<path d="M2650 3525 c1 -26 2 -28 11 -12 8 14 8 22 0 30 -8 8 -11 3 -11 -18z"/>
<path d="M3680 3541 c0 -6 5 -13 10 -16 6 -3 10 1 10 9 0 9 -4 16 -10 16 -5 0
-10 -4 -10 -9z"/>
<path d="M3462 3510 c0 -14 2 -19 5 -12 2 6 2 18 0 25 -3 6 -5 1 -5 -13z"/>
<path d="M2420 3461 c0 -6 5 -13 10 -16 6 -3 10 1 10 9 0 9 -4 16 -10 16 -5 0
-10 -4 -10 -9z"/>
<path d="M2375 3450 c-4 -6 -3 -16 3 -22 6 -6 12 -6 17 2 4 6 3 16 -3 22 -6 6
-12 6 -17 -2z"/>
<path d="M4602 3449 c2 -8 20 -15 39 -17 40 -4 30 13 -15 24 -22 5 -28 4 -24
-7z"/>
<path d="M3396 3435 c4 -8 8 -15 10 -15 2 0 4 7 4 15 0 8 -4 15 -10 15 -5 0
-7 -7 -4 -15z"/>
<path d="M3492 3419 c17 -46 16 -45 33 -23 19 25 19 34 -3 34 -10 0 -23 5 -30
12 -9 9 -9 3 0 -23z"/>
<path d="M3615 3419 c-4 -12 -2 -26 4 -32 8 -8 11 -2 11 21 0 37 -6 41 -15 11z"/>
<path d="M3530 3355 c0 -11 5 -27 10 -35 8 -12 10 -12 10 5 0 11 -5 27 -10 35
-8 12 -10 12 -10 -5z"/>
<path d="M3480 3321 c-6 -12 -7 -21 -1 -21 10 0 24 30 17 37 -2 3 -9 -5 -16
-16z"/>
<path d="M3419 3283 l-4 -51 37 -11 c47 -14 53 -25 38 -62 -13 -31 -30 -39
-30 -15 0 31 -15 22 -17 -10 -1 -18 -12 -55 -23 -81 -58 -127 -62 -148 -14
-65 15 26 33 52 40 57 6 6 17 26 23 45 6 19 20 46 31 60 17 21 21 23 29 10 6
-8 13 -11 17 -8 4 4 -14 28 -39 54 -26 26 -44 51 -41 55 3 5 0 9 -6 9 -6 0
-17 14 -24 32 l-14 32 -3 -51z"/>
<path d="M3593 3289 c-3 -12 -11 -18 -19 -15 -9 3 -14 -2 -14 -13 0 -11 -3
-28 -7 -38 -6 -16 -5 -16 11 -4 13 11 20 11 28 3 15 -15 31 -15 22 0 -4 6 -6
28 -6 50 2 41 -7 51 -15 17z"/>
<path d="M3211 3264 c0 -11 3 -14 6 -6 3 7 2 16 -1 19 -3 4 -6 -2 -5 -13z"/>
<path d="M3336 3185 c-3 -8 -1 -15 4 -15 6 0 10 7 10 15 0 8 -2 15 -4 15 -2 0
-6 -7 -10 -15z"/>
<path d="M3585 3068 c14 -25 33 -52 42 -60 14 -11 13 -7 -2 20 -11 18 -30 45
-42 60 -21 25 -21 24 2 -20z"/>
<path d="M3741 3074 c0 -11 3 -14 6 -6 3 7 2 16 -1 19 -3 4 -6 -2 -5 -13z"/>
<path d="M3892 3075 c4 -6 3 -17 -2 -25 -6 -8 -10 -26 -9 -40 0 -24 0 -24 13
5 12 28 13 29 24 10 8 -14 11 -16 12 -5 0 8 -10 26 -23 40 -12 14 -19 21 -15
15z"/>
<path d="M3510 3066 c0 -9 5 -16 10 -16 6 0 10 4 10 9 0 6 -4 13 -10 16 -5 3
-10 -1 -10 -9z"/>
<path d="M3338 3045 c-3 -14 -1 -25 3 -25 5 0 9 11 9 25 0 14 -2 25 -4 25 -2
0 -6 -11 -8 -25z"/>
<path d="M3117 3053 c-4 -3 -7 -11 -7 -17 0 -6 5 -5 12 2 6 6 9 14 7 17 -3 3
-9 2 -12 -2z"/>
<path d="M3095 2981 c-3 -5 -2 -12 3 -15 5 -3 9 1 9 9 0 17 -3 19 -12 6z"/>
<path d="M3344 2971 c9 -14 -4 -41 -20 -41 -8 0 -14 -5 -14 -11 0 -5 5 -7 10
-4 19 12 10 -4 -20 -35 -41 -42 -23 -37 28 8 29 25 40 43 38 57 -3 11 -5 23
-5 28 -1 4 -6 7 -12 7 -5 0 -8 -4 -5 -9z"/>
<path d="M3723 2967 c2 -64 -12 -71 -56 -29 l-30 27 17 -26 c18 -29 113 -109
129 -109 6 0 -3 12 -20 28 -26 23 -29 32 -25 68 2 23 -1 44 -6 48 -5 3 -10 0
-9 -7z"/>
<path d="M3271 2944 c0 -11 3 -14 6 -6 3 7 2 16 -1 19 -3 4 -6 -2 -5 -13z"/>
<path d="M3806 2944 c-3 -9 -4 -20 -1 -24 8 -13 58 -1 75 17 13 14 13 14 -6 5
-16 -8 -26 -8 -41 3 -18 13 -22 13 -27 -1z"/>
<path d="M2765 2940 c3 -5 11 -10 16 -10 6 0 7 5 4 10 -3 6 -11 10 -16 10 -6
0 -7 -4 -4 -10z"/>
<path d="M3417 2944 c-10 -11 -9 -54 2 -54 15 0 18 13 12 38 -3 13 -9 20 -14
16z"/>
<path d="M3480 2902 c0 -6 -3 -19 -7 -29 -6 -15 -4 -16 9 -5 13 10 17 10 21 0
4 -9 6 -8 6 3 1 9 -6 22 -14 29 -9 8 -15 8 -15 2z"/>
<path d="M3669 2825 c0 -5 -2 -37 -3 -70 -3 -65 -35 -152 -68 -182 -19 -17
-21 -17 -49 17 -83 99 -85 100 -125 100 -69 0 -69 -8 2 -115 103 -157 100
-145 104 -336 0 -13 9 -16 43 -14 23 2 44 4 47 4 3 1 6 41 7 90 2 105 9 123
96 256 36 55 65 100 64 102 -4 3 -60 11 -85 12 -21 1 -22 4 -19 60 3 33 0 65
-4 73 -5 7 -9 9 -10 3z"/>
<path d="M4080 2821 c0 -5 5 -13 10 -16 6 -3 10 -2 10 4 0 5 -4 13 -10 16 -5
3 -10 2 -10 -4z"/>
<path d="M3630 2706 c0 -9 5 -16 10 -16 6 0 10 4 10 9 0 6 -4 13 -10 16 -5 3
-10 -1 -10 -9z"/>
<path d="M1349 2683 c-1 -5 -3 -108 -3 -230 -1 -150 1 -223 8 -224 6 -1 28 -2
49 -3 42 -2 39 -11 39 114 l1 74 81 -87 c49 -53 92 -91 109 -95 33 -9 109 -3
105 8 -4 10 -80 99 -145 169 l-51 56 26 32 c15 18 55 66 90 108 35 41 60 76
55 76 -42 6 -91 4 -106 -3 -20 -10 -75 -69 -122 -129 -16 -22 -32 -39 -36 -39
-4 0 -7 30 -7 68 0 121 4 112 -47 112 -25 0 -46 -3 -46 -7z"/>
<path d="M1947 2682 c-3 -6 -1 -404 2 -443 1 -12 11 -15 49 -13 26 1 50 2 55
3 8 1 1 440 -8 449 -8 9 -94 11 -98 4z"/>
<path d="M2272 2642 l3 -47 46 -5 45 -5 -1 -170 c-1 -93 0 -175 2 -181 3 -9
55 -11 106 -5 5 1 8 20 7 44 -1 23 -1 103 -1 178 l1 136 49 7 c48 6 49 7 53
46 3 37 2 40 -22 41 -14 0 -85 2 -158 5 l-133 3 3 -47z"/>
<path d="M2924 2673 c-3 -10 -10 -27 -15 -38 -45 -105 -157 -400 -154 -405 5
-8 81 -4 96 6 5 3 18 23 29 44 18 35 23 38 67 42 97 7 113 1 134 -48 20 -44
25 -46 84 -46 34 0 37 2 30 30 -9 37 -156 405 -166 416 -4 5 -28 11 -53 13
-38 4 -47 2 -52 -14z m76 -185 c31 -68 28 -78 -26 -78 -25 0 -44 4 -42 8 2 4
12 31 22 60 11 29 22 52 23 52 2 0 13 -19 23 -42z"/>
<path d="M4031 2463 c-50 -125 -91 -231 -91 -234 0 -8 85 -3 99 5 6 4 20 25
31 47 11 21 26 39 33 40 18 1 99 1 125 0 17 -1 28 -12 42 -46 11 -25 25 -45
32 -46 7 0 25 -2 39 -4 43 -6 53 7 39 51 -6 22 -18 53 -25 69 -7 17 -39 95
-71 175 -31 80 -60 149 -64 153 -4 4 -27 10 -52 13 l-45 6 -92 -229z m159 25
c31 -68 28 -78 -26 -78 -40 0 -45 2 -39 18 4 9 14 36 22 60 8 23 17 42 19 42
3 0 14 -19 24 -42z"/>
<path d="M4609 2672 c0 -9 -2 -24 -3 -32 -2 -8 -6 -53 -9 -100 -4 -47 -10
-119 -13 -160 -4 -41 -8 -93 -8 -115 -1 -40 -1 -40 37 -39 20 1 43 2 50 3 9 1
15 17 16 49 1 26 4 58 5 72 2 14 4 46 5 73 0 26 5 47 10 47 5 0 25 -46 45
-102 45 -126 59 -148 85 -141 23 6 42 44 87 173 25 72 33 88 35 65 1 -16 3
-39 4 -50 1 -11 6 -56 10 -100 4 -44 9 -82 10 -85 3 -5 16 -5 88 -1 14 1 17 7
13 34 -6 35 -11 87 -22 222 -4 50 -8 97 -10 105 -1 8 -3 34 -3 58 l-1 43 -47
-5 c-27 -2 -53 -5 -59 -5 -6 -1 -19 -22 -29 -48 -37 -101 -77 -193 -83 -193
-4 0 -25 46 -46 103 -22 56 -47 110 -57 121 -24 26 -109 33 -110 8z"/>
<path d="M5438 2678 c-15 -11 -193 -437 -186 -443 5 -5 40 -7 74 -6 27 1 34 7
47 40 9 22 21 42 27 46 20 12 139 8 155 -5 8 -7 23 -28 31 -46 9 -19 24 -34
33 -35 9 -1 28 -2 43 -3 15 -2 32 0 37 4 10 5 -30 110 -141 375 -32 77 -35 80
-68 83 -19 2 -43 -3 -52 -10z m67 -200 c13 -28 22 -55 19 -60 -8 -13 -82 -9
-86 4 -4 11 32 108 39 108 2 0 15 -23 28 -52z"/>
<path d="M2413 2035 c-18 -13 -21 -51 -14 -190 1 -36 18 -22 23 20 2 23 9 31
26 33 25 4 62 -23 62 -43 0 -16 28 -40 36 -32 4 3 -3 25 -14 48 l-21 42 21 27
c23 32 18 63 -15 84 -32 21 -83 26 -104 11z m98 -47 c7 -14 7 -23 -1 -33 -16
-19 -60 -28 -75 -15 -17 14 -15 58 3 69 20 12 61 1 73 -21z"/>
<path d="M2845 2041 c-3 -2 -5 -53 -5 -113 l0 -108 65 0 c90 0 86 22 -5 32
-20 2 -25 8 -25 32 0 26 4 30 35 34 19 2 37 6 40 8 8 8 -24 24 -48 24 -47 0
-38 64 9 66 61 3 63 4 52 15 -10 10 -109 19 -118 10z"/>
<path d="M3718 2042 c-22 -4 -24 -22 -3 -23 46 -4 46 -4 52 -101 3 -46 7 -85
9 -87 11 -11 16 14 18 88 2 86 5 93 38 98 25 4 34 10 26 18 -7 7 -115 12 -140
7z"/>
<path d="M4934 2036 c-2 -6 -5 -57 -6 -114 l-3 -102 60 0 c67 0 106 15 64 24
-13 3 -37 7 -54 8 -26 3 -30 7 -30 33 0 27 3 30 39 33 22 1 42 5 45 8 10 10
-24 24 -56 24 -30 0 -33 3 -33 30 0 17 3 30 8 30 66 4 134 29 82 31 -14 0 -45
2 -69 3 -23 1 -45 -2 -47 -8z"/>
<path d="M1983 2025 c-39 -27 -51 -113 -23 -165 26 -49 110 -49 135 1 19 36
12 37 -27 4 -36 -30 -49 -31 -73 -5 -26 29 -25 125 1 145 22 16 55 11 70 -10
12 -16 44 -21 44 -6 0 16 -57 51 -82 51 -13 0 -33 -7 -45 -15z"/>
<path d="M3328 2034 c-11 -17 -78 -193 -78 -204 0 -19 21 -10 32 15 6 14 18
26 27 26 46 4 68 -3 88 -28 12 -15 25 -25 28 -21 8 8 -54 174 -74 200 -10 12
-20 17 -23 12z m32 -80 c14 -40 11 -46 -25 -49 -28 -4 -31 6 -14 54 14 40 25
39 39 -5z"/>
<path d="M4167 2026 c-12 -29 -10 -173 2 -193 9 -16 11 -15 12 7 5 76 4 149
-1 175 -5 26 -7 27 -13 11z"/>
<path d="M4470 2023 c0 -25 72 -193 83 -193 8 0 41 66 76 158 16 41 18 52 7
52 -13 0 -35 -48 -67 -143 l-13 -37 -14 37 c-40 110 -55 143 -63 143 -5 0 -9
-8 -9 -17z"/>
</g>
</svg>
